{
	"asset":{
		"copyright":"Monstrous",
		"generator":"Khronos glTF Blender I/O v3.5.30",
		"version":"2.0"
	},
	"scene":0,
	"scenes":[
		{
			"name":"Scene",
			"nodes":[
				0
			]
		}
	],
	"nodes":[
		{
			"mesh":0,
			"name":"Cactus",
			"scale":[
				0.3520491123199463,
				0.31010332703590393,
				0.3520491123199463
			],
			"translation":[
				0,
				0.3314759135246277,
				0
			]
		}
	],
	"materials":[
		{
			"doubleSided":true,
			"name":"Material.001",
			"pbrMetallicRoughness":{
				"baseColorTexture":{
					"index":0
				},
				"metallicFactor":0,
				"roughnessFactor":0.5
			}
		}
	],
	"meshes":[
		{
			"name":"Cylinder",
			"primitives":[
				{
					"attributes":{
						"POSITION":0,
						"TEXCOORD_0":1,
						"NORMAL":2
					},
					"indices":3,
					"material":0
				}
			]
		}
	],
	"textures":[
		{
			"sampler":0,
			"source":0
		}
	],
	"images":[
		{
			"mimeType":"image/png",
			"name":"palette",
			"uri":"palette.png"
		}
	],
	"accessors":[
		{
			"bufferView":0,
			"componentType":5126,
			"count":1337,
			"max":[
				1.3656365871429443,
				5.5645623207092285,
				1.3656365871429443
			],
			"min":[
				-1.3656365871429443,
				-1,
				-1.3656365871429443
			],
			"type":"VEC3"
		},
		{
			"bufferView":1,
			"componentType":5126,
			"count":1337,
			"type":"VEC2"
		},
		{
			"bufferView":2,
			"componentType":5126,
			"count":1337,
			"type":"VEC3"
		},
		{
			"bufferView":3,
			"componentType":5123,
			"count":3258,
			"type":"SCALAR"
		}
	],
	"bufferViews":[
		{
			"buffer":0,
			"byteLength":16044,
			"byteOffset":0,
			"target":34962
		},
		{
			"buffer":0,
			"byteLength":10696,
			"byteOffset":16044,
			"target":34962
		},
		{
			"buffer":0,
			"byteLength":16044,
			"byteOffset":26740,
			"target":34962
		},
		{
			"buffer":0,
			"byteLength":6516,
			"byteOffset":42784,
			"target":34963
		}
	],
	"samplers":[
		{
			"magFilter":9728,
			"minFilter":9984
		}
	],
	"buffers":[
		{
			"byteLength":49300,
			"uri":"furryCactus.bin"
		}
	]
}
