{
	"asset":{
		"generator":"Khronos glTF Blender I/O v3.5.30",
		"version":"2.0"
	},
	"scene":0,
	"scenes":[
		{
			"name":"Scene",
			"nodes":[
				0,
				1
			]
		}
	],
	"nodes":[
		{
			"mesh":0,
			"name":"stairs",
			"translation":[
				0,
				0,
				-2
			]
		},
		{
			"mesh":1,
			"name":"floor_tile_large"
		}
	],
	"materials":[
		{
			"name":"texture",
			"pbrMetallicRoughness":{
				"baseColorTexture":{
					"index":0
				},
				"metallicFactor":0,
				"roughnessFactor":0.44999998807907104
			}
		},
		{
			"name":"texture.001",
			"pbrMetallicRoughness":{
				"baseColorTexture":{
					"index":1
				},
				"metallicFactor":0,
				"roughnessFactor":0.44999998807907104
			}
		}
	],
	"meshes":[
		{
			"name":"stairs",
			"primitives":[
				{
					"attributes":{
						"POSITION":0,
						"TEXCOORD_0":1,
						"NORMAL":2
					},
					"indices":3,
					"material":0
				}
			]
		},
		{
			"name":"floor_tile_large",
			"primitives":[
				{
					"attributes":{
						"POSITION":4,
						"TEXCOORD_0":5,
						"NORMAL":6
					},
					"indices":7,
					"material":1
				}
			]
		}
	],
	"textures":[
		{
			"sampler":0,
			"source":0
		},
		{
			"sampler":0,
			"source":0
		}
	],
	"images":[
		{
			"bufferView":4,
			"mimeType":"image/png",
			"name":"dungeon_texture"
		}
	],
	"accessors":[
		{
			"bufferView":0,
			"componentType":5126,
			"count":736,
			"max":[
				2.5,
				5.099999904632568,
				4
			],
			"min":[
				-2.500000238418579,
				0,
				-1.092784742695585e-07
			],
			"type":"VEC3"
		},
		{
			"bufferView":1,
			"componentType":5126,
			"count":736,
			"type":"VEC2"
		},
		{
			"bufferView":2,
			"componentType":5126,
			"count":736,
			"type":"VEC3"
		},
		{
			"bufferView":3,
			"componentType":5123,
			"count":1074,
			"type":"SCALAR"
		},
		{
			"bufferView":5,
			"componentType":5126,
			"count":275,
			"max":[
				2,
				0.05000000819563866,
				2
			],
			"min":[
				-2,
				-0.10000000894069672,
				-2
			],
			"type":"VEC3"
		},
		{
			"bufferView":6,
			"componentType":5126,
			"count":275,
			"type":"VEC2"
		},
		{
			"bufferView":7,
			"componentType":5126,
			"count":275,
			"type":"VEC3"
		},
		{
			"bufferView":8,
			"componentType":5123,
			"count":564,
			"type":"SCALAR"
		}
	],
	"bufferViews":[
		{
			"buffer":0,
			"byteLength":8832,
			"byteOffset":0,
			"target":34962
		},
		{
			"buffer":0,
			"byteLength":5888,
			"byteOffset":8832,
			"target":34962
		},
		{
			"buffer":0,
			"byteLength":8832,
			"byteOffset":14720,
			"target":34962
		},
		{
			"buffer":0,
			"byteLength":2148,
			"byteOffset":23552,
			"target":34963
		},
		{
			"buffer":0,
			"byteLength":17047,
			"byteOffset":25700
		},
		{
			"buffer":0,
			"byteLength":3300,
			"byteOffset":42748,
			"target":34962
		},
		{
			"buffer":0,
			"byteLength":2200,
			"byteOffset":46048,
			"target":34962
		},
		{
			"buffer":0,
			"byteLength":3300,
			"byteOffset":48248,
			"target":34962
		},
		{
			"buffer":0,
			"byteLength":1128,
			"byteOffset":51548,
			"target":34963
		}
	],
	"samplers":[
		{
			"magFilter":9729,
			"minFilter":9987
		}
	],
	"buffers":[
		{
			"byteLength":52676,
			"uri":"data:application/octet-stream;base64,"
		}
	]
}
