{
	"asset":{
		"generator":"Khronos glTF Blender I/O v3.5.30",
		"version":"2.0"
	},
	"scene":0,
	"scenes":[
		{
			"name":"Scene",
			"nodes":[
				0,
				1,
				2
			]
		}
	],
	"nodes":[
		{
			"mesh":0,
			"name":"wall"
		},
		{
			"mesh":1,
			"name":"torch_mounted"
		},
		{
			"mesh":2,
			"name":"torch_lit"
		}
	],
	"materials":[
		{
			"name":"texture",
			"pbrMetallicRoughness":{
				"baseColorTexture":{
					"index":0
				},
				"metallicFactor":0,
				"roughnessFactor":0.44999998807907104
			}
		},
		{
			"name":"texture.001",
			"pbrMetallicRoughness":{
				"baseColorTexture":{
					"index":1
				},
				"metallicFactor":0,
				"roughnessFactor":0.44999998807907104
			}
		},
		{
			"name":"texture.002",
			"pbrMetallicRoughness":{
				"baseColorTexture":{
					"index":2
				},
				"metallicFactor":0,
				"roughnessFactor":0.44999998807907104
			}
		}
	],
	"meshes":[
		{
			"name":"wall",
			"primitives":[
				{
					"attributes":{
						"POSITION":0,
						"TEXCOORD_0":1,
						"NORMAL":2
					},
					"indices":3,
					"material":0
				}
			]
		},
		{
			"name":"torch_mounted",
			"primitives":[
				{
					"attributes":{
						"POSITION":4,
						"TEXCOORD_0":5,
						"NORMAL":6
					},
					"indices":7,
					"material":1
				},
				{
					"attributes":{
						"POSITION":8,
						"TEXCOORD_0":9,
						"NORMAL":10
					},
					"indices":11,
					"material":2
				}
			]
		},
		{
			"name":"torch_lit",
			"primitives":[
				{
					"attributes":{
						"POSITION":12,
						"TEXCOORD_0":13,
						"NORMAL":14
					},
					"indices":15,
					"material":2
				}
			]
		}
	],
	"textures":[
		{
			"sampler":0,
			"source":0
		},
		{
			"sampler":0,
			"source":0
		},
		{
			"sampler":0,
			"source":0
		}
	],
	"images":[
		{
			"mimeType":"image/png",
			"name":"dungeon_texture",
			"uri":"dungeon_texture.png"
		}
	],
	"accessors":[
		{
			"bufferView":0,
			"componentType":5126,
			"count":1034,
			"max":[
				2,
				4,
				0.5
			],
			"min":[
				-2,
				0,
				-0.5
			],
			"type":"VEC3"
		},
		{
			"bufferView":1,
			"componentType":5126,
			"count":1034,
			"type":"VEC2"
		},
		{
			"bufferView":2,
			"componentType":5126,
			"count":1034,
			"type":"VEC3"
		},
		{
			"bufferView":3,
			"componentType":5123,
			"count":1482,
			"type":"SCALAR"
		},
		{
			"bufferView":4,
			"componentType":5126,
			"count":404,
			"max":[
				0.2751467823982239,
				3.0205066204071045,
				0.878260612487793
			],
			"min":[
				-0.2751365005970001,
				1.9580398797988892,
				0.2624201476573944
			],
			"type":"VEC3"
		},
		{
			"bufferView":5,
			"componentType":5126,
			"count":404,
			"type":"VEC2"
		},
		{
			"bufferView":6,
			"componentType":5126,
			"count":404,
			"type":"VEC3"
		},
		{
			"bufferView":7,
			"componentType":5123,
			"count":834,
			"type":"SCALAR"
		},
		{
			"bufferView":8,
			"componentType":5126,
			"count":29,
			"max":[
				0.11954138427972794,
				3.1395435333251953,
				0.6897194981575012
			],
			"min":[
				-0.11949260532855988,
				2.714752674102783,
				0.45460206270217896
			],
			"type":"VEC3"
		},
		{
			"bufferView":9,
			"componentType":5126,
			"count":29,
			"type":"VEC2"
		},
		{
			"bufferView":10,
			"componentType":5126,
			"count":29,
			"type":"VEC3"
		},
		{
			"bufferView":11,
			"componentType":5123,
			"count":162,
			"type":"SCALAR"
		},
		{
			"bufferView":12,
			"componentType":5126,
			"count":289,
			"max":[
				0.2751416862010956,
				0.6465588808059692,
				0.2751415967941284
			],
			"min":[
				-0.2751416563987732,
				-0.395045667886734,
				-0.2751416862010956
			],
			"type":"VEC3"
		},
		{
			"bufferView":13,
			"componentType":5126,
			"count":289,
			"type":"VEC2"
		},
		{
			"bufferView":14,
			"componentType":5126,
			"count":289,
			"type":"VEC3"
		},
		{
			"bufferView":15,
			"componentType":5123,
			"count":648,
			"type":"SCALAR"
		}
	],
	"bufferViews":[
		{
			"buffer":0,
			"byteLength":12408,
			"byteOffset":0,
			"target":34962
		},
		{
			"buffer":0,
			"byteLength":8272,
			"byteOffset":12408,
			"target":34962
		},
		{
			"buffer":0,
			"byteLength":12408,
			"byteOffset":20680,
			"target":34962
		},
		{
			"buffer":0,
			"byteLength":2964,
			"byteOffset":33088,
			"target":34963
		},
		{
			"buffer":0,
			"byteLength":4848,
			"byteOffset":36052,
			"target":34962
		},
		{
			"buffer":0,
			"byteLength":3232,
			"byteOffset":40900,
			"target":34962
		},
		{
			"buffer":0,
			"byteLength":4848,
			"byteOffset":44132,
			"target":34962
		},
		{
			"buffer":0,
			"byteLength":1668,
			"byteOffset":48980,
			"target":34963
		},
		{
			"buffer":0,
			"byteLength":348,
			"byteOffset":50648,
			"target":34962
		},
		{
			"buffer":0,
			"byteLength":232,
			"byteOffset":50996,
			"target":34962
		},
		{
			"buffer":0,
			"byteLength":348,
			"byteOffset":51228,
			"target":34962
		},
		{
			"buffer":0,
			"byteLength":324,
			"byteOffset":51576,
			"target":34963
		},
		{
			"buffer":0,
			"byteLength":3468,
			"byteOffset":51900,
			"target":34962
		},
		{
			"buffer":0,
			"byteLength":2312,
			"byteOffset":55368,
			"target":34962
		},
		{
			"buffer":0,
			"byteLength":3468,
			"byteOffset":57680,
			"target":34962
		},
		{
			"buffer":0,
			"byteLength":1296,
			"byteOffset":61148,
			"target":34963
		}
	],
	"samplers":[
		{
			"magFilter":9729,
			"minFilter":9987
		}
	],
	"buffers":[
		{
			"byteLength":62444,
			"uri":"torch_lit_mounted.bin"
		}
	]
}
