{
	"asset":{
		"generator":"Khronos glTF Blender I/O v3.5.30",
		"version":"2.0"
	},
	"scene":0,
	"scenes":[
		{
			"name":"Scene",
			"nodes":[
				0,
				1,
				2,
				3,
				4,
				5,
				6,
				7
			]
		}
	],
	"nodes":[
		{
			"mesh":0,
			"name":"BrickFloor",
			"scale":[
				4,
				4,
				4
			],
			"translation":[
				8,
				0,
				0
			]
		},
		{
			"mesh":0,
			"name":"BrickFloor.001",
			"scale":[
				4,
				4,
				4
			],
			"translation":[
				8,
				0,
				-8
			]
		},
		{
			"mesh":0,
			"name":"BrickFloor.002",
			"scale":[
				4,
				4,
				4
			],
			"translation":[
				16,
				0,
				0
			]
		},
		{
			"mesh":0,
			"name":"BrickFloor.003",
			"scale":[
				4,
				4,
				4
			],
			"translation":[
				16,
				0,
				-8
			]
		},
		{
			"mesh":0,
			"name":"BrickFloor.004",
			"scale":[
				4,
				4,
				4
			],
			"translation":[
				-8,
				0,
				0
			]
		},
		{
			"mesh":0,
			"name":"BrickFloor.005",
			"scale":[
				4,
				4,
				4
			],
			"translation":[
				-8,
				0,
				-8
			]
		},
		{
			"mesh":0,
			"name":"BrickFloor.006",
			"scale":[
				4,
				4,
				4
			]
		},
		{
			"mesh":0,
			"name":"BrickFloor.007",
			"scale":[
				4,
				4,
				4
			],
			"translation":[
				0,
				0,
				-8
			]
		}
	],
	"materials":[
		{
			"doubleSided":true,
			"name":"Material.001",
			"normalTexture":{
				"index":0,
				"scale":10.200000286102295
			},
			"pbrMetallicRoughness":{
				"baseColorTexture":{
					"index":1
				},
				"metallicFactor":0,
				"metallicRoughnessTexture":{
					"index":2
				}
			}
		}
	],
	"meshes":[
		{
			"name":"Plane.003",
			"primitives":[
				{
					"attributes":{
						"POSITION":0,
						"TEXCOORD_0":1,
						"NORMAL":2
					},
					"indices":3,
					"material":0
				}
			]
		}
	],
	"textures":[
		{
			"sampler":0,
			"source":0
		},
		{
			"sampler":0,
			"source":1
		},
		{
			"sampler":0,
			"source":2
		}
	],
	"images":[
		{
			"mimeType":"image/png",
			"name":"worn_brick_floor_nor_gl_1k",
			"uri":"textures/worn_brick_floor_nor_gl_1k.png"
		},
		{
			"mimeType":"image/jpeg",
			"name":"worn_brick_floor_diff_1k",
			"uri":"textures/worn_brick_floor_diff_1k.jpg"
		},
		{
			"mimeType":"image/png",
			"name":"worn_brick_floor_rough_1k",
			"uri":"textures/worn_brick_floor_rough_1k.png"
		}
	],
	"accessors":[
		{
			"bufferView":0,
			"componentType":5126,
			"count":4,
			"max":[
				1,
				0,
				1
			],
			"min":[
				-1,
				0,
				-1
			],
			"type":"VEC3"
		},
		{
			"bufferView":1,
			"componentType":5126,
			"count":4,
			"type":"VEC2"
		},
		{
			"bufferView":2,
			"componentType":5126,
			"count":4,
			"type":"VEC3"
		},
		{
			"bufferView":3,
			"componentType":5123,
			"count":6,
			"type":"SCALAR"
		}
	],
	"bufferViews":[
		{
			"buffer":0,
			"byteLength":48,
			"byteOffset":0,
			"target":34962
		},
		{
			"buffer":0,
			"byteLength":32,
			"byteOffset":48,
			"target":34962
		},
		{
			"buffer":0,
			"byteLength":48,
			"byteOffset":80,
			"target":34962
		},
		{
			"buffer":0,
			"byteLength":12,
			"byteOffset":128,
			"target":34963
		}
	],
	"samplers":[
		{
			"magFilter":9729,
			"minFilter":9987
		}
	],
	"buffers":[
		{
			"byteLength":140,
			"uri":"dungeon-floor.bin"
		}
	]
}
