{
	"asset":{
		"generator":"Khronos glTF Blender I/O v3.5.30",
		"version":"2.0"
	},
	"scene":0,
	"scenes":[
		{
			"name":"Scene",
			"nodes":[
				0,
				1,
				2,
				3,
				4,
				5,
				6,
				7,
				8,
				9,
				10,
				11,
				12,
				13,
				14,
				15,
				16,
				17,
				18,
				19,
				20,
				21,
				22,
				23,
				24,
				25,
				26,
				27
			]
		}
	],
	"nodes":[
		{
			"mesh":0,
			"name":"BrickFloor",
			"scale":[
				4,
				4,
				4
			],
			"translation":[
				8,
				0,
				0
			]
		},
		{
			"mesh":0,
			"name":"BrickFloor.001",
			"scale":[
				4,
				4,
				4
			],
			"translation":[
				8,
				0,
				-8
			]
		},
		{
			"mesh":0,
			"name":"BrickFloor.002",
			"scale":[
				4,
				4,
				4
			],
			"translation":[
				16,
				0,
				0
			]
		},
		{
			"mesh":0,
			"name":"BrickFloor.003",
			"scale":[
				4,
				4,
				4
			],
			"translation":[
				16,
				0,
				-8
			]
		},
		{
			"mesh":0,
			"name":"BrickFloor.004",
			"scale":[
				4,
				4,
				4
			],
			"translation":[
				-8,
				0,
				0
			]
		},
		{
			"mesh":0,
			"name":"BrickFloor.005",
			"scale":[
				4,
				4,
				4
			],
			"translation":[
				-8,
				0,
				-8
			]
		},
		{
			"mesh":0,
			"name":"BrickFloor.006",
			"scale":[
				4,
				4,
				4
			]
		},
		{
			"mesh":0,
			"name":"BrickFloor.007",
			"scale":[
				4,
				4,
				4
			],
			"translation":[
				0,
				0,
				-8
			]
		},
		{
			"mesh":1,
			"name":"Wall",
			"translation":[
				-12,
				0,
				0
			]
		},
		{
			"mesh":1,
			"name":"Wall.001",
			"translation":[
				-12,
				0,
				-8
			]
		},
		{
			"mesh":2,
			"name":"Wall.002",
			"rotation":[
				0,
				0.7071068286895752,
				0,
				0.7071068286895752
			],
			"translation":[
				-8,
				0,
				4
			]
		},
		{
			"mesh":2,
			"name":"Wall.003",
			"rotation":[
				0,
				0.7071068286895752,
				0,
				0.7071068286895752
			],
			"translation":[
				0,
				0,
				4
			]
		},
		{
			"mesh":2,
			"name":"Wall.004",
			"rotation":[
				0,
				0.7071068286895752,
				0,
				0.7071068286895752
			],
			"translation":[
				8,
				0,
				4
			]
		},
		{
			"mesh":2,
			"name":"Wall.005",
			"rotation":[
				0,
				0.7071068286895752,
				0,
				0.7071068286895752
			],
			"translation":[
				16,
				0,
				4
			]
		},
		{
			"mesh":1,
			"name":"Wall.006",
			"rotation":[
				0,
				-1,
				0,
				1.6292068494294654e-07
			],
			"translation":[
				20.010089874267578,
				0,
				-7.975020408630371
			]
		},
		{
			"mesh":1,
			"name":"Wall.007",
			"rotation":[
				0,
				-1,
				0,
				1.6292068494294654e-07
			],
			"translation":[
				20.01009178161621,
				0,
				0.024977833032608032
			]
		},
		{
			"mesh":2,
			"name":"Wall.008",
			"rotation":[
				0,
				-0.7071068286895752,
				0,
				0.7071068286895752
			],
			"translation":[
				16.010087966918945,
				0,
				-11.975020408630371
			]
		},
		{
			"mesh":2,
			"name":"Wall.009",
			"rotation":[
				0,
				-0.7071068286895752,
				0,
				0.7071068286895752
			],
			"translation":[
				8.010088920593262,
				0,
				-11.975019454956055
			]
		},
		{
			"mesh":2,
			"name":"Wall.010",
			"rotation":[
				0,
				-0.7071068286895752,
				0,
				0.7071068286895752
			],
			"translation":[
				0.01008981466293335,
				0,
				-11.975018501281738
			]
		},
		{
			"mesh":2,
			"name":"Wall.011",
			"rotation":[
				0,
				-0.7071068286895752,
				0,
				0.7071068286895752
			],
			"translation":[
				-7.989912033081055,
				0,
				-11.975018501281738
			]
		},
		{
			"mesh":3,
			"name":"Ceiling",
			"rotation":[
				-1,
				0,
				0,
				1.6292068494294654e-07
			],
			"scale":[
				4,
				4,
				4
			],
			"translation":[
				0,
				8,
				0
			]
		},
		{
			"mesh":3,
			"name":"Ceiling.001",
			"rotation":[
				-1,
				0,
				0,
				1.6292068494294654e-07
			],
			"scale":[
				4,
				4,
				4
			],
			"translation":[
				8,
				8,
				0
			]
		},
		{
			"mesh":3,
			"name":"Ceiling.002",
			"rotation":[
				-1,
				0,
				0,
				1.6292068494294654e-07
			],
			"scale":[
				4,
				4,
				4
			],
			"translation":[
				16,
				8,
				0
			]
		},
		{
			"mesh":3,
			"name":"Ceiling.003",
			"rotation":[
				-1,
				0,
				0,
				1.6292068494294654e-07
			],
			"scale":[
				4,
				4,
				4
			],
			"translation":[
				-8,
				8,
				0
			]
		},
		{
			"mesh":3,
			"name":"Ceiling.004",
			"rotation":[
				-1,
				0,
				0,
				1.6292068494294654e-07
			],
			"scale":[
				4,
				4,
				4
			],
			"translation":[
				0,
				8,
				-8
			]
		},
		{
			"mesh":3,
			"name":"Ceiling.005",
			"rotation":[
				-1,
				0,
				0,
				1.6292068494294654e-07
			],
			"scale":[
				4,
				4,
				4
			],
			"translation":[
				8,
				8,
				-8
			]
		},
		{
			"mesh":3,
			"name":"Ceiling.006",
			"rotation":[
				-1,
				0,
				0,
				1.6292068494294654e-07
			],
			"scale":[
				4,
				4,
				4
			],
			"translation":[
				16,
				8,
				-8
			]
		},
		{
			"mesh":3,
			"name":"Ceiling.007",
			"rotation":[
				-1,
				0,
				0,
				1.6292068494294654e-07
			],
			"scale":[
				4,
				4,
				4
			],
			"translation":[
				-8,
				8,
				-8
			]
		}
	],
	"materials":[
		{
			"name":"Material.001",
			"normalTexture":{
				"index":0,
				"scale":6.200000286102295
			},
			"pbrMetallicRoughness":{
				"baseColorTexture":{
					"index":1
				},
				"metallicFactor":0,
				"metallicRoughnessTexture":{
					"index":2
				}
			}
		},
		{
			"name":"Material",
			"normalTexture":{
				"index":3
			},
			"pbrMetallicRoughness":{
				"baseColorTexture":{
					"index":4
				},
				"metallicRoughnessTexture":{
					"index":5
				}
			}
		},
		{
			"name":"CastleBricks",
			"normalTexture":{
				"index":6
			},
			"pbrMetallicRoughness":{
				"baseColorTexture":{
					"index":7
				},
				"metallicFactor":0,
				"metallicRoughnessTexture":{
					"index":8
				}
			}
		}
	],
	"meshes":[
		{
			"name":"Plane.003",
			"primitives":[
				{
					"attributes":{
						"POSITION":0,
						"TEXCOORD_0":1,
						"NORMAL":2
					},
					"indices":3,
					"material":0
				}
			]
		},
		{
			"name":"Plane",
			"primitives":[
				{
					"attributes":{
						"POSITION":4,
						"TEXCOORD_0":5,
						"NORMAL":6
					},
					"indices":3,
					"material":1
				}
			]
		},
		{
			"name":"Plane.001",
			"primitives":[
				{
					"attributes":{
						"POSITION":7,
						"TEXCOORD_0":8,
						"NORMAL":9
					},
					"indices":3,
					"material":1
				}
			]
		},
		{
			"name":"Plane.002",
			"primitives":[
				{
					"attributes":{
						"POSITION":10,
						"TEXCOORD_0":11,
						"NORMAL":12
					},
					"indices":3,
					"material":2
				}
			]
		}
	],
	"textures":[
		{
			"sampler":0,
			"source":0
		},
		{
			"sampler":0,
			"source":1
		},
		{
			"sampler":0,
			"source":2
		},
		{
			"sampler":0,
			"source":3
		},
		{
			"sampler":0,
			"source":4
		},
		{
			"sampler":0,
			"source":5
		},
		{
			"sampler":0,
			"source":6
		},
		{
			"sampler":0,
			"source":7
		},
		{
			"sampler":0,
			"source":8
		}
	],
	"images":[
		{
			"mimeType":"image/png",
			"name":"worn_brick_floor_nor_gl_1k",
			"uri":"textures/worn_brick_floor_nor_gl_1k.png"
		},
		{
			"mimeType":"image/jpeg",
			"name":"worn_brick_floor_diff_1k",
			"uri":"textures/worn_brick_floor_diff_1k.jpg"
		},
		{
			"mimeType":"image/png",
			"name":"worn_brick_floor_rough_1k",
			"uri":"textures/worn_brick_floor_rough_1k.png"
		},
		{
			"mimeType":"image/png",
			"name":"thick-mortar-stonework_normal-ogl",
			"uri":"textures/thick-mortar-stonework_normal-ogl.png"
		},
		{
			"mimeType":"image/png",
			"name":"thick-mortar-stonework_albedo",
			"uri":"textures/thick-mortar-stonework_albedo.png"
		},
		{
			"mimeType":"image/png",
			"name":"thick-mortar-stonework_metallic-thick-mortar-stonework_roughness",
			"uri":"textures/thick-mortar-stonework_metallic-thick-mortar-stonework_roughness.png"
		},
		{
			"mimeType":"image/png",
			"name":"castle_brick_07_nor_gl_1k",
			"uri":"textures/castle_brick_07_nor_gl_1k.png"
		},
		{
			"mimeType":"image/jpeg",
			"name":"castle_brick_07_diff_1k",
			"uri":"textures/castle_brick_07_diff_1k.jpg"
		},
		{
			"mimeType":"image/png",
			"name":"castle_brick_07_rough_1k",
			"uri":"textures/castle_brick_07_rough_1k.png"
		}
	],
	"accessors":[
		{
			"bufferView":0,
			"componentType":5126,
			"count":4,
			"max":[
				1,
				0,
				1
			],
			"min":[
				-1,
				0,
				-1
			],
			"type":"VEC3"
		},
		{
			"bufferView":1,
			"componentType":5126,
			"count":4,
			"type":"VEC2"
		},
		{
			"bufferView":2,
			"componentType":5126,
			"count":4,
			"type":"VEC3"
		},
		{
			"bufferView":3,
			"componentType":5123,
			"count":6,
			"type":"SCALAR"
		},
		{
			"bufferView":4,
			"componentType":5126,
			"count":4,
			"max":[
				4.76837158203125e-07,
				8,
				4
			],
			"min":[
				-4.76837158203125e-07,
				0,
				-4
			],
			"type":"VEC3"
		},
		{
			"bufferView":5,
			"componentType":5126,
			"count":4,
			"type":"VEC2"
		},
		{
			"bufferView":6,
			"componentType":5126,
			"count":4,
			"type":"VEC3"
		},
		{
			"bufferView":7,
			"componentType":5126,
			"count":4,
			"max":[
				4.76837158203125e-07,
				8,
				4
			],
			"min":[
				-4.76837158203125e-07,
				0,
				-4
			],
			"type":"VEC3"
		},
		{
			"bufferView":8,
			"componentType":5126,
			"count":4,
			"type":"VEC2"
		},
		{
			"bufferView":9,
			"componentType":5126,
			"count":4,
			"type":"VEC3"
		},
		{
			"bufferView":10,
			"componentType":5126,
			"count":4,
			"max":[
				1,
				0,
				1
			],
			"min":[
				-1,
				0,
				-1
			],
			"type":"VEC3"
		},
		{
			"bufferView":11,
			"componentType":5126,
			"count":4,
			"type":"VEC2"
		},
		{
			"bufferView":12,
			"componentType":5126,
			"count":4,
			"type":"VEC3"
		}
	],
	"bufferViews":[
		{
			"buffer":0,
			"byteLength":48,
			"byteOffset":0,
			"target":34962
		},
		{
			"buffer":0,
			"byteLength":32,
			"byteOffset":48,
			"target":34962
		},
		{
			"buffer":0,
			"byteLength":48,
			"byteOffset":80,
			"target":34962
		},
		{
			"buffer":0,
			"byteLength":12,
			"byteOffset":128,
			"target":34963
		},
		{
			"buffer":0,
			"byteLength":48,
			"byteOffset":140,
			"target":34962
		},
		{
			"buffer":0,
			"byteLength":32,
			"byteOffset":188,
			"target":34962
		},
		{
			"buffer":0,
			"byteLength":48,
			"byteOffset":220,
			"target":34962
		},
		{
			"buffer":0,
			"byteLength":48,
			"byteOffset":268,
			"target":34962
		},
		{
			"buffer":0,
			"byteLength":32,
			"byteOffset":316,
			"target":34962
		},
		{
			"buffer":0,
			"byteLength":48,
			"byteOffset":348,
			"target":34962
		},
		{
			"buffer":0,
			"byteLength":48,
			"byteOffset":396,
			"target":34962
		},
		{
			"buffer":0,
			"byteLength":32,
			"byteOffset":444,
			"target":34962
		},
		{
			"buffer":0,
			"byteLength":48,
			"byteOffset":476,
			"target":34962
		}
	],
	"samplers":[
		{
			"magFilter":9729,
			"minFilter":9987
		}
	],
	"buffers":[
		{
			"byteLength":524,
			"uri":"dungeon-room.bin"
		}
	]
}
